<svg xmlns="http://www.w3.org/2000/svg" viewBox="0 0 480 270" shape-rendering="crispEdges">
  <rect width="480" height="270" fill="#d9dde3" />

  <g fill="#c3ccd7">
    <rect x="234" y="18" width="30" height="6" />
    <rect x="222" y="24" width="54" height="6" />
    <rect x="228" y="30" width="42" height="6" />
    <rect x="240" y="36" width="18" height="6" />
  </g>

  <g fill="#22262f">
    <rect x="54" y="180" width="12" height="6" />
    <rect x="60" y="174" width="12" height="6" />
    <rect x="66" y="168" width="12" height="6" />
    <rect x="60" y="186" width="12" height="6" />
    <rect x="66" y="192" width="12" height="12" />
    <rect x="72" y="162" width="18" height="30" />
    <rect x="84" y="156" width="18" height="30" />
    <rect x="96" y="144" width="12" height="24" />
    <rect x="102" y="138" width="12" height="18" />
    <rect x="84" y="186" width="12" height="18" />
    <rect x="96" y="180" width="12" height="24" />

    <rect x="210" y="168" width="12" height="36" />
    <rect x="204" y="174" width="6" height="12" />
    <rect x="210" y="162" width="12" height="6" />

    <rect x="294" y="162" width="12" height="42" />
    <rect x="288" y="174" width="6" height="12" />
    <rect x="294" y="156" width="12" height="6" />
    <rect x="300" y="150" width="6" height="6" />

    <rect x="390" y="174" width="12" height="6" />
    <rect x="396" y="168" width="12" height="6" />
    <rect x="402" y="162" width="12" height="6" />
    <rect x="408" y="168" width="12" height="6" />
    <rect x="414" y="174" width="12" height="6" />
    <rect x="420" y="168" width="12" height="6" />
    <rect x="402" y="174" width="12" height="12" />
    <rect x="426" y="168" width="6" height="6" />
    <rect x="396" y="180" width="6" height="6" />
  </g>

  <rect y="204" width="480" height="3" fill="#47515d" />
</svg>
